<svg width="32" height="32" viewBox="0 0 32 32" fill="none" xmlns="http://www.w3.org/2000/svg">
  <!-- Background circle with cosmic gradient -->
  <defs>
    <radialGradient id="cosmicGradient" cx="0.5" cy="0.5" r="0.5">
      <stop offset="0%" stop-color="#667eea"/>
      <stop offset="50%" stop-color="#764ba2"/>
      <stop offset="100%" stop-color="#f093fb"/>
    </radialGradient>
    <linearGradient id="starGradient" x1="0%" y1="0%" x2="100%" y2="100%">
      <stop offset="0%" stop-color="#ffffff"/>
      <stop offset="100%" stop-color="#fbbf24"/>
    </linearGradient>
  </defs>
  
  <!-- Main background circle -->
  <circle cx="16" cy="16" r="15" fill="url(#cosmicGradient)" stroke="#ffffff" stroke-width="1"/>
  
  <!-- Zodiac circle -->
  <circle cx="16" cy="16" r="12" fill="none" stroke="rgba(255,255,255,0.3)" stroke-width="0.5"/>
  <circle cx="16" cy="16" r="8" fill="none" stroke="rgba(255,255,255,0.2)" stroke-width="0.3"/>
  
  <!-- Central star -->
  <g transform="translate(16, 16)">
    <path d="M0,-4 L1,-1 L4,0 L1,1 L0,4 L-1,1 L-4,0 L-1,-1 Z" fill="url(#starGradient)"/>
  </g>
  
  <!-- Small stars around the circle -->
  <g fill="url(#starGradient)">
    <circle cx="16" cy="4" r="0.8"/>
    <circle cx="24" cy="8" r="0.6"/>
    <circle cx="28" cy="16" r="0.7"/>
    <circle cx="24" cy="24" r="0.5"/>
    <circle cx="16" cy="28" r="0.8"/>
    <circle cx="8" cy="24" r="0.6"/>
    <circle cx="4" cy="16" r="0.7"/>
    <circle cx="8" cy="8" r="0.5"/>
  </g>
  
  <!-- Planetary symbols -->
  <g fill="rgba(255,255,255,0.8)" font-size="6" text-anchor="middle">
    <!-- Sun symbol -->
    <text x="16" y="6">☉</text>
    <!-- Moon symbol -->
    <text x="26" y="16">☽</text>
    <!-- Venus symbol -->
    <text x="16" y="26">♀</text>
    <!-- Mars symbol -->
    <text x="6" y="16">♂</text>
  </g>
</svg>
